<svg width="200" height="200" viewBox="0 0 200 200" fill="none" xmlns="http://www.w3.org/2000/svg">
    <path
        d="M10 50.5C10 28.1325 28.1325 10 50.5 10H149.5C171.868 10 190 28.1325 190 50.5V149.5C190 171.868 171.868 190 149.5 190H50.5C28.1325 190 10 171.868 10 149.5V50.5Z"
        fill="url(#paint0_radial_1202_1390)" />
    <path fill-rule="evenodd" clip-rule="evenodd"
        d="M71.5962 153.361C78.3585 153.987 87.1408 154 99.9994 154C112.858 154 121.64 153.987 128.403 153.361C134.985 152.751 138.377 151.644 140.777 150.22C144.665 147.913 147.912 144.666 150.22 140.777C151.643 138.378 152.75 134.986 153.36 128.403C153.987 121.641 153.999 112.859 153.999 100C153.999 87.1414 153.987 78.3591 153.36 71.5968C152.75 65.0142 151.643 61.6221 150.22 59.2227C147.912 55.334 144.665 52.087 140.777 49.7796C138.377 48.356 134.985 47.2491 128.403 46.6392C121.64 46.0126 112.858 46 99.9994 46C87.1408 46 78.3585 46.0126 71.5962 46.6392C65.0136 47.2491 61.6215 48.356 59.2221 49.7796C55.3334 52.087 52.0863 55.334 49.779 59.2227C48.3554 61.6221 47.2485 65.0142 46.6386 71.5968C46.012 78.3591 45.9994 87.1414 45.9994 100C45.9994 112.859 46.012 121.641 46.6386 128.403C47.2485 134.986 48.3554 138.378 49.779 140.777C52.0863 144.666 55.3334 147.913 59.2221 150.22C61.6215 151.644 65.0136 152.751 71.5962 153.361ZM38.9428 52.7933C33.3994 62.1363 33.3994 74.7575 33.3994 100C33.3994 125.243 33.3994 137.864 38.9428 147.207C42.3269 152.91 47.0892 157.673 52.7927 161.057C62.1357 166.6 74.7569 166.6 99.9994 166.6C125.242 166.6 137.863 166.6 147.206 161.057C152.91 157.673 157.672 152.91 161.056 147.207C166.599 137.864 166.599 125.243 166.599 100C166.599 74.7575 166.599 62.1363 161.056 52.7933C157.672 47.0898 152.91 42.3275 147.206 38.9435C137.863 33.4 125.242 33.4 99.9994 33.4C74.7569 33.4 62.1357 33.4 52.7927 38.9435C47.0892 42.3275 42.3269 47.0898 38.9428 52.7933Z"
        fill="white" />
    <path
        d="M129.699 98.1276C129.699 114.49 116.402 98.1276 99.9993 98.1276C83.5965 98.1276 70.2993 114.49 70.2993 98.1276C70.2993 81.7647 83.5965 68.5 99.9993 68.5C116.402 68.5 129.699 81.7647 129.699 98.1276Z"
        fill="white" />
    <defs>
        <radialGradient id="paint0_radial_1202_1390" cx="0" cy="0" r="1" gradientUnits="userSpaceOnUse"
            gradientTransform="translate(100 76.15) rotate(-90) scale(66.15 115.781)">
            <stop stop-color="#D79355" />
            <stop offset="0.375" stop-color="#B234FF" />
            <stop offset="1" stop-color="#3D3BAA" />
        </radialGradient>
    </defs>
</svg>